<svg id="Layer_1" data-name="Layer 1" xmlns="http://www.w3.org/2000/svg" viewBox="0 0 163.47 51.8"><defs><style>.cls-1{fill:#19326e;}</style></defs><path class="cls-1" d="M44.19,0H7.61A7.61,7.61,0,0,0,0,7.61V44.18A7.62,7.62,0,0,0,7.61,51.8H44.19a7.62,7.62,0,0,0,7.61-7.62V7.61A7.61,7.61,0,0,0,44.19,0ZM24.29,38.85l.44,0a11.12,11.12,0,0,0,1.16-.06,13.11,13.11,0,0,0,6.58-2.45,16.09,16.09,0,0,1-7.06,3.53,13.1,13.1,0,0,1-2.65.28ZM24,38.47l-1.53,1.31V14.45L24,13.14Zm-5.87,7.1c-.51-.19-1-.41-1.52-.65V14.42l1.52-1.3ZM40.61,41a21.11,21.11,0,0,1-18.19,5.68v-6h.29a13.57,13.57,0,0,0,2.8-.29C30.89,39.28,36.08,35,37.36,29.56A13.22,13.22,0,0,0,25.89,12.49a11.13,11.13,0,0,0-1.16-.05c-.23,0-.47,0-.7,0H24l-1.53,1.31V12.44H18.08l-2,1.74V44.67A20.63,20.63,0,0,1,5.49,31.44,21.14,21.14,0,1,1,40.61,41Z"/><path class="cls-1" d="M60.37,28.19V9.34h6.49a13.08,13.08,0,0,1,2.93.31,6.47,6.47,0,0,1,2.39,1,5,5,0,0,1,1.61,1.88,6.38,6.38,0,0,1,.59,2.89,6.55,6.55,0,0,1-.59,2.86,5.49,5.49,0,0,1-1.61,2,6.67,6.67,0,0,1-2.34,1.16,10.5,10.5,0,0,1-2.84.37H64.62v6.4Zm4.24-9.79H66.7q3.48,0,3.48-3a2.28,2.28,0,0,0-.93-2.09,4.83,4.83,0,0,0-2.66-.57h-2Z"/><path class="cls-1" d="M78.82,11.71a2.54,2.54,0,0,1-1.77-.62,2,2,0,0,1-.69-1.6,2,2,0,0,1,.69-1.6,2.93,2.93,0,0,1,3.55,0,2.07,2.07,0,0,1,.68,1.6,2.07,2.07,0,0,1-.68,1.6A2.52,2.52,0,0,1,78.82,11.71ZM76.71,28.19V13.82H81V28.19Z"/><path class="cls-1" d="M84.12,28.19V13.82h3.47l.29,1.83H88a11.34,11.34,0,0,1,2-1.52,5.07,5.07,0,0,1,2.55-.65A3.86,3.86,0,0,1,96,15a7.47,7.47,0,0,1,1,4.26v8.93H92.77V19.82a3.87,3.87,0,0,0-.41-2.14A1.58,1.58,0,0,0,91,17.1a2.64,2.64,0,0,0-1.4.36,8.73,8.73,0,0,0-1.27,1v9.69Z"/><path class="cls-1" d="M100.11,28.19V13.82h3.49l.29,1.83H104a11.34,11.34,0,0,1,2-1.52,5,5,0,0,1,2.55-.65A3.82,3.82,0,0,1,112,15a7.47,7.47,0,0,1,1,4.26v8.93h-4.25V19.82a3.87,3.87,0,0,0-.42-2.14A1.55,1.55,0,0,0,107,17.1a2.6,2.6,0,0,0-1.39.36,7.66,7.66,0,0,0-1.27,1v9.69Z"/><path class="cls-1" d="M119.73,28.54a4.54,4.54,0,0,1-1.78-.33,3.93,3.93,0,0,1-1.35-.93,4.63,4.63,0,0,1-.85-1.37,4.69,4.69,0,0,1-.3-1.7,4,4,0,0,1,1.91-3.54,14,14,0,0,1,6.16-1.7,2.34,2.34,0,0,0-.56-1.52,2.21,2.21,0,0,0-1.7-.56,5.26,5.26,0,0,0-1.84.34,13.83,13.83,0,0,0-2,1l-1.54-2.81a14.65,14.65,0,0,1,3-1.42,10.12,10.12,0,0,1,3.23-.53,5.55,5.55,0,0,1,4.25,1.58A7.12,7.12,0,0,1,127.78,20v8.2H124.3l-.3-1.48h-.11A9.07,9.07,0,0,1,122,28,4.81,4.81,0,0,1,119.73,28.54Zm1.45-3.3a2.38,2.38,0,0,0,1.25-.32,5.23,5.23,0,0,0,1.09-.9V21.48a7.77,7.77,0,0,0-3.12.92,1.76,1.76,0,0,0-.85,1.45,1.14,1.14,0,0,0,.45,1,1.92,1.92,0,0,0,1.16.36Z"/><path class="cls-1" d="M137,28.54a7.42,7.42,0,0,1-2.79-.51A6.18,6.18,0,0,1,132,26.57a6.54,6.54,0,0,1-1.51-2.36,8.73,8.73,0,0,1-.55-3.2,8.16,8.16,0,0,1,.6-3.2,6.86,6.86,0,0,1,4-3.82,7.79,7.79,0,0,1,2.83-.51,5.84,5.84,0,0,1,2.37.44A7.18,7.18,0,0,1,141.61,15l-2,2.75a3,3,0,0,0-4.24.08l-.16.18a4.61,4.61,0,0,0-.9,3,4.66,4.66,0,0,0,.91,3,2.87,2.87,0,0,0,2.35,1.1,3.13,3.13,0,0,0,1.35-.3,6.38,6.38,0,0,0,1.23-.74l1.7,2.78a6.31,6.31,0,0,1-2.32,1.32A8,8,0,0,1,137,28.54Z"/><path class="cls-1" d="M157.86,28.54A7.77,7.77,0,0,1,155,28a6.39,6.39,0,0,1-2.32-1.48,6.89,6.89,0,0,1-1.52-2.35A8.79,8.79,0,0,1,150.6,21a8.2,8.2,0,0,1,.55-3.18,7.51,7.51,0,0,1,1.52-2.37A6.73,6.73,0,0,1,160,14a5.31,5.31,0,0,1,1.91,1.44,6.06,6.06,0,0,1,1.15,2.19,9.4,9.4,0,0,1,.38,2.74,6.7,6.7,0,0,1-.06,1.1,2.64,2.64,0,0,1-.12.78H154.7a3.49,3.49,0,0,0,1.29,2.3,4,4,0,0,0,2.45.74,5.91,5.91,0,0,0,3.1-1L163,26.86a9.06,9.06,0,0,1-2.46,1.25A8.74,8.74,0,0,1,157.86,28.54Zm-3.18-9.09h5.18a3.23,3.23,0,0,0-.55-2,2.16,2.16,0,0,0-1.86-.75,2.65,2.65,0,0,0-1.78.66,3.34,3.34,0,0,0-1,2.09Z"/><path class="cls-1" d="M60.36,44.22V31.62H63.2v12.6Z"/><path class="cls-1" d="M65.94,44.22V34.64h2.32l.19,1.21h.08a7.38,7.38,0,0,1,1.35-1,3.27,3.27,0,0,1,1.7-.44,2.56,2.56,0,0,1,2.3,1,5,5,0,0,1,.7,2.84v6H71.73V38.64a2.54,2.54,0,0,0-.28-1.43,1,1,0,0,0-.85-.39,1.69,1.69,0,0,0-.93.25,5.07,5.07,0,0,0-.85.68v6.47Z"/><path class="cls-1" d="M77.47,44.22V36.86H76.2v-2.1l1.27-.1v-.52a5.78,5.78,0,0,1,.18-1.43,3.32,3.32,0,0,1,.61-1.18,2.87,2.87,0,0,1,1.1-.79A4,4,0,0,1,81,30.45a5,5,0,0,1,1.09.11,6.32,6.32,0,0,1,.85.24l-.57,2.08a3.12,3.12,0,0,0-1-.2,1.08,1.08,0,0,0-.85.33,1.47,1.47,0,0,0-.29,1.05v.58H82v2.22H80.3v7.36Z"/><path class="cls-1" d="M87.47,44.45a4.68,4.68,0,0,1-1.7-.29,4.32,4.32,0,0,1-1.53-1,4.71,4.71,0,0,1-1-1.53,5.79,5.79,0,0,1-.38-2.14,5.55,5.55,0,0,1,.38-2.17,4.48,4.48,0,0,1,1-1.57,4.16,4.16,0,0,1,1.51-1,4.71,4.71,0,0,1,3.5,0,4.17,4.17,0,0,1,1.49,1,4.48,4.48,0,0,1,1,1.57,6.19,6.19,0,0,1,0,4.27,4.89,4.89,0,0,1-1,1.57,4.67,4.67,0,0,1-1.52,1A4.54,4.54,0,0,1,87.47,44.45Zm0-2.3a1.42,1.42,0,0,0,1.31-.74,3.76,3.76,0,0,0,.44-2,3.76,3.76,0,0,0-.44-2A1.54,1.54,0,0,0,86.63,37a1.41,1.41,0,0,0-.49.48,3.87,3.87,0,0,0-.43,2,3.85,3.85,0,0,0,.43,2A1.45,1.45,0,0,0,87.47,42.15Z"/><path class="cls-1" d="M97.28,44.45a3.71,3.71,0,0,1-1.51-.27,2.64,2.64,0,0,1-1-.75,3.19,3.19,0,0,1-.57-1.17,5.21,5.21,0,0,1-.2-1.52V36.86H92.67v-2.1l1.46-.12.33-2.55h2.35v2.55H99.1v2.22H96.81V40.7a1.69,1.69,0,0,0,.33,1.17,1.21,1.21,0,0,0,.9.36,1.84,1.84,0,0,0,.47-.06A2.19,2.19,0,0,0,99,42l.44,2.08-.91.23A5.27,5.27,0,0,1,97.28,44.45Z"/><path class="cls-1" d="M104.93,44.45a5.2,5.2,0,0,1-1.91-.34,4.36,4.36,0,0,1-1.54-1,4.52,4.52,0,0,1-1-1.58,5.71,5.71,0,0,1-.37-2.12,5.4,5.4,0,0,1,.39-2.1,5,5,0,0,1,1-1.58,4.2,4.2,0,0,1,1.43-1,4.45,4.45,0,0,1,3.47,0,3.48,3.48,0,0,1,1.28,1,4,4,0,0,1,.76,1.45,6.55,6.55,0,0,1,.25,1.82v.74a2.27,2.27,0,0,1-.09.52h-5.73a2.41,2.41,0,0,0,.85,1.54,2.79,2.79,0,0,0,1.63.49,4,4,0,0,0,2.07-.64l1,1.7a5.91,5.91,0,0,1-1.64.79A5.53,5.53,0,0,1,104.93,44.45Zm-2.12-6.07h3.46a2.15,2.15,0,0,0-.37-1.3,1.41,1.41,0,0,0-1.24-.51,1.8,1.8,0,0,0-1.19.45A2.25,2.25,0,0,0,102.81,38.38Z"/><path class="cls-1" d="M114.82,44.45a5.21,5.21,0,0,1-1.88-.29,4.17,4.17,0,0,1-1.49-1,4.48,4.48,0,0,1-1-1.57,6,6,0,0,1-.36-2.14,5,5,0,0,1,.41-2.13,4.74,4.74,0,0,1,1.08-1.57,4.6,4.6,0,0,1,1.6-1,5.27,5.27,0,0,1,1.89-.34,4,4,0,0,1,1.57.29,5.26,5.26,0,0,1,1.23.73l-1.33,1.83a2.12,2.12,0,0,0-1.3-.55,2,2,0,0,0-1.64.73,3.12,3.12,0,0,0-.59,2,3,3,0,0,0,.6,2,2,2,0,0,0,2.44.53,4.8,4.8,0,0,0,.85-.49l1.1,1.83a4.51,4.51,0,0,1-1.55.85A5.27,5.27,0,0,1,114.82,44.45Z"/><path class="cls-1" d="M119.67,44.22V30.68h2.83V34l-.12,1.7a6.49,6.49,0,0,1,1.24-.85,3.28,3.28,0,0,1,1.7-.42,2.56,2.56,0,0,1,2.27,1,5,5,0,0,1,.7,2.84v6h-2.83V38.64a2.54,2.54,0,0,0-.28-1.43,1,1,0,0,0-.9-.39,1.69,1.69,0,0,0-.93.25,5.07,5.07,0,0,0-.85.68v6.47Z"/><polygon class="cls-1" points="147.97 24.46 147.97 7.89 143.72 7.89 143.72 28.19 145.54 28.19 147.97 28.19 149.78 28.19 149.78 24.46 147.97 24.46"/></svg>